<svg data-v-fde0c5aa="" xmlns="http://www.w3.org/2000/svg" viewBox="0 0 300 300" class="iconLeftSlogan"><!----><defs data-v-fde0c5aa=""><!----></defs><rect data-v-fde0c5aa="" fill="#002C73" x="0" y="0" width="300px" height="300px" class="logo-background-square"></rect><defs data-v-fde0c5aa=""><!----></defs><g data-v-fde0c5aa="" id="c18c890e-0323-49a8-9633-67979a0787f6" fill="#ffffff" transform="matrix(2.521272563196222,0,0,2.521272563196222,120.59883382167331,123.00662350113095)"><path d="M7.46 10.22L8.43 10.22L4.76 0.57L3.78 0.57L0.10 10.22L1.08 10.22L2.04 7.66L6.50 7.66ZM2.37 6.83L4.27 1.81L6.17 6.83ZM9.65 10.22L10.54 10.22L10.54 0L9.65 0ZM18.26 3.68L18.26 4.94C17.77 4.06 16.76 3.54 15.65 3.54C13.82 3.54 12.33 4.96 12.33 6.94C12.33 8.93 13.83 10.36 15.65 10.36C16.74 10.36 17.77 9.84 18.26 8.96L18.26 9.30C18.26 11.82 17.21 12.63 15.61 12.63C14.83 12.63 14.01 12.24 13.54 11.47L12.78 11.89C13.43 12.95 14.50 13.48 15.61 13.48C17.74 13.48 19.15 12.42 19.15 9.25L19.15 3.68ZM15.72 9.51C14.35 9.51 13.23 8.39 13.23 6.93C13.23 5.49 14.35 4.40 15.72 4.40C17.02 4.40 18.26 5.39 18.26 6.97C18.26 8.48 17.08 9.51 15.72 9.51ZM24.36 10.36C26.22 10.36 27.79 9.00 27.79 6.93C27.79 4.86 26.22 3.54 24.36 3.54C22.50 3.54 20.94 4.86 20.94 6.93C20.94 9.00 22.50 10.36 24.36 10.36ZM24.36 9.51C22.97 9.51 21.84 8.48 21.84 6.93C21.84 5.39 22.97 4.40 24.36 4.40C25.73 4.40 26.89 5.39 26.89 6.93C26.89 8.48 25.73 9.51 24.36 9.51ZM30.67 9.35L33.60 5.87C34.19 5.17 34.64 4.28 34.64 3.51C34.64 1.93 33.50 0.90 31.86 0.90C30.41 0.90 29.33 1.69 29.11 2.98L29.90 3.18C30.07 2.30 30.84 1.75 31.86 1.75C32.97 1.75 33.74 2.45 33.74 3.51C33.74 4.06 33.35 4.79 32.80 5.46L29.16 9.84L29.16 10.22L34.75 10.22L34.75 9.35ZM37.74 9.35L40.67 5.87C41.26 5.17 41.71 4.28 41.71 3.51C41.71 1.93 40.57 0.90 38.93 0.90C37.48 0.90 36.40 1.69 36.18 2.98L36.97 3.18C37.14 2.30 37.91 1.75 38.93 1.75C40.04 1.75 40.81 2.45 40.81 3.51C40.81 4.06 40.42 4.79 39.87 5.46L36.23 9.84L36.23 10.22L41.82 10.22L41.82 9.35ZM45.81 0.90L42.97 2.20L42.97 3.08L44.97 2.23L44.97 10.22L45.85 10.22L45.85 0.90ZM53.49 5.08C54.39 4.72 54.77 3.82 54.77 2.95C54.77 1.46 53.76 0.57 52.21 0.57L48.71 0.57L48.71 10.22L52.56 10.22C54.26 10.22 55.29 8.93 55.29 7.56C55.29 6.55 54.73 5.40 53.49 5.08ZM52.19 1.44C53.21 1.44 53.84 2.04 53.84 3.02C53.84 3.98 53.33 4.72 52.37 4.72L49.63 4.72L49.63 1.44ZM52.40 9.35L49.63 9.35L49.63 5.53L52.36 5.53C53.62 5.53 54.36 6.45 54.36 7.49C54.36 8.48 53.65 9.35 52.40 9.35Z"></path></g><defs data-v-fde0c5aa=""><!----></defs><g data-v-fde0c5aa="" id="8383169f-b2b7-44ad-b3f7-e7f51593c432" stroke="none" fill="#FFD009" transform="matrix(2.120342533804685,0,0,2.120342533804685,40,116.07451945912504)"><path d="M9.382 8.675h13.943v13.943L32 31.293V0H.707zM22.618 23.325H8.675V9.382L0 .707V32h31.293z"></path></g><defs data-v-fde0c5aa=""><!----></defs><g data-v-fde0c5aa="" id="0c81997d-84c4-461e-9926-56f4522c57da" fill="#ffffff" transform="matrix(0.7477513120350217,0,0,0.7477513120350217,119.79663175673943,163.38921504650023)"><path d="M10.54 5.74L10.54 5.74L10.54 5.74Q10.58 5.98 10.61 6.07L10.61 6.07L10.61 6.07Q10.63 6.16 10.63 6.31L10.63 6.31L10.63 6.31Q10.63 6.78 10.42 7.18L10.42 7.18L10.42 7.18Q10.22 7.57 9.87 7.74L9.87 7.74L9.87 7.74Q9.59 7.36 9.18 7.09L9.18 7.09L9.18 7.09Q8.78 6.82 8.29 6.64L8.29 6.64L8.29 6.64Q7.81 6.47 7.29 6.38L7.29 6.38L7.29 6.38Q6.78 6.30 6.29 6.30L6.29 6.30L6.29 6.30Q5.80 6.30 5.37 6.38L5.37 6.38L5.37 6.38Q4.94 6.45 4.61 6.59L4.61 6.59L4.61 6.59Q4.28 6.72 4.09 6.92L4.09 6.92L4.09 6.92Q3.91 7.11 3.91 7.36L3.91 7.36L3.91 7.36Q3.95 7.67 4.28 7.99L4.28 7.99L4.28 7.99Q4.62 8.30 5.11 8.60L5.11 8.60L5.11 8.60Q5.60 8.90 6.20 9.20L6.20 9.20L6.20 9.20Q6.79 9.49 7.36 9.76L7.36 9.76L7.36 9.76Q8.08 10.09 8.60 10.38L8.60 10.38L8.60 10.38Q9.11 10.67 9.45 11.01L9.45 11.01L9.45 11.01Q9.79 11.35 9.95 11.79L9.95 11.79L9.95 11.79Q10.12 12.22 10.12 12.84L10.12 12.84L10.12 12.84Q10.12 13.55 9.88 14.18L9.88 14.18L9.88 14.18Q9.65 14.80 9.19 15.26L9.19 15.26L9.19 15.26Q8.74 15.72 8.09 15.98L8.09 15.98L8.09 15.98Q7.45 16.24 6.65 16.24L6.65 16.24L6.65 16.24Q5.87 16.24 4.96 16.00L4.96 16.00L4.96 16.00Q4.05 15.76 3.25 15.35L3.25 15.35L3.25 15.35Q2.46 14.94 1.94 14.40L1.94 14.40L1.94 14.40Q1.41 13.86 1.41 13.26L1.41 13.26L1.41 13.26Q1.41 12.98 1.57 12.54L1.57 12.54L1.57 12.54Q1.74 12.11 2.16 11.63L2.16 11.63L2.16 11.63Q2.20 12.05 2.61 12.63L2.61 12.63L2.61 12.63Q3.02 13.20 3.85 13.69L3.85 13.69L3.85 13.69Q4.62 14.14 5.44 14.34L5.44 14.34L5.44 14.34Q6.26 14.55 6.97 14.55L6.97 14.55L6.97 14.55Q7.76 14.55 8.25 14.35L8.25 14.35L8.25 14.35Q8.74 14.15 9.02 13.88L9.02 13.88L9.02 13.88Q9.30 13.61 9.41 13.33L9.41 13.33L9.41 13.33Q9.52 13.05 9.53 12.88L9.53 12.88L9.53 12.88Q9.52 12.60 9.28 12.34L9.28 12.34L9.28 12.34Q9.03 12.08 8.62 11.84L8.62 11.84L8.62 11.84Q8.20 11.59 7.66 11.34L7.66 11.34L7.66 11.34Q7.11 11.09 6.52 10.84L6.52 10.84L6.52 10.84Q5.64 10.44 5.00 10.10L5.00 10.10L5.00 10.10Q4.37 9.76 3.96 9.40L3.96 9.40L3.96 9.40Q3.54 9.04 3.35 8.65L3.35 8.65L3.35 8.65Q3.16 8.26 3.16 7.76L3.16 7.76L3.16 7.76Q3.16 6.97 3.64 6.27L3.64 6.27L3.64 6.27Q4.12 5.57 5.01 5.21L5.01 5.21L5.01 5.21Q5.46 5.01 5.97 4.93L5.97 4.93L5.97 4.93Q6.48 4.84 6.97 4.84L6.97 4.84L6.97 4.84Q7.90 4.84 8.78 5.10L8.78 5.10L8.78 5.10Q9.66 5.35 10.54 5.74ZM20.52 6.69L20.52 6.69L20.52 6.69Q19.96 6.69 19.66 6.38L19.66 6.38L19.66 6.38Q19.36 6.06 19.36 5.61L19.36 5.61L19.36 5.61Q19.36 5.50 19.40 5.35L19.40 5.35L19.40 5.35Q19.43 5.19 19.49 5.08L19.49 5.08L19.49 5.08Q19.67 5.17 20.03 5.20L20.03 5.20L20.03 5.20Q20.38 5.24 20.86 5.24L20.86 5.24L20.86 5.24Q21.57 5.24 22.48 5.17L22.48 5.17L22.48 5.17Q23.38 5.11 24.21 5.04L24.21 5.04L24.21 5.04Q25.03 4.97 25.66 4.91L25.66 4.91L25.66 4.91Q26.29 4.84 26.47 4.84L26.47 4.84L26.47 4.84Q26.99 4.84 27.22 5.23L27.22 5.23L27.22 5.23Q27.45 5.61 27.57 6.26L27.57 6.26L27.57 6.26Q27.20 6.23 26.84 6.21L26.84 6.21L26.84 6.21Q26.49 6.19 26.24 6.19L26.24 6.19L26.24 6.19Q25.79 6.19 25.33 6.22L25.33 6.22L25.33 6.22Q24.88 6.24 24.42 6.30L24.42 6.30L24.42 6.30Q24.22 6.71 23.98 7.26L23.98 7.26L23.98 7.26Q23.74 7.81 23.51 8.41L23.51 8.41L23.51 8.41Q23.28 9.02 23.07 9.61L23.07 9.61L23.07 9.61Q22.86 10.21 22.71 10.68L22.71 10.68L22.71 10.68Q22.40 11.61 22.17 12.39L22.17 12.39L22.17 12.39Q21.94 13.17 21.76 13.85L21.76 13.85L21.76 13.85Q21.59 14.53 21.46 15.15L21.46 15.15L21.46 15.15Q21.34 15.76 21.24 16.35L21.24 16.35L21.24 16.35Q20.30 16.21 19.67 15.18L19.67 15.18L19.67 15.18Q19.78 14.74 19.94 14.23L19.94 14.23L19.94 14.23Q20.10 13.72 20.32 13.07L20.32 13.07L20.32 13.07Q20.54 12.42 20.83 11.59L20.83 11.59L20.83 11.59Q21.13 10.77 21.50 9.72L21.50 9.72L21.50 9.72Q21.64 9.32 21.80 8.90L21.80 8.90L21.80 8.90Q21.95 8.47 22.10 8.05L22.10 8.05L22.10 8.05Q22.25 7.63 22.37 7.24L22.37 7.24L22.37 7.24Q22.48 6.85 22.57 6.52L22.57 6.52L22.57 6.52Q21.98 6.59 21.46 6.64L21.46 6.64L21.46 6.64Q20.93 6.69 20.52 6.69ZM42.50 7.46L42.50 7.46L42.50 7.46Q42.50 8.13 42.20 8.73L42.20 8.73L42.20 8.73Q41.90 9.32 41.37 9.79L41.37 9.79L41.37 9.79Q40.84 10.26 40.12 10.58L40.12 10.58L40.12 10.58Q39.41 10.91 38.57 11.02L38.57 11.02L38.57 11.02Q38.78 11.65 39.08 12.31L39.08 12.31L39.08 12.31Q39.38 12.98 39.73 13.59L39.73 13.59L39.73 13.59Q40.08 14.21 40.46 14.73L40.46 14.73L40.46 14.73Q40.84 15.25 41.20 15.58L41.20 15.58L41.20 15.58Q41.13 15.72 41.00 15.86L41.00 15.86L41.00 15.86Q40.87 16.00 40.69 16.12L40.69 16.12L40.69 16.12Q40.52 16.24 40.33 16.32L40.33 16.32L40.33 16.32Q40.14 16.39 39.97 16.39L39.97 16.39L39.97 16.39Q39.66 16.39 39.38 16.10L39.38 16.10L39.38 16.10Q39.10 15.81 38.81 15.17L38.81 15.17L38.81 15.17Q38.53 14.53 38.21 13.52L38.21 13.52L38.21 13.52Q37.90 12.50 37.52 11.07L37.52 11.07L37.52 11.07Q37.37 11.07 37.21 11.07L37.21 11.07L37.21 11.07Q37.06 11.07 36.97 11.05L36.97 11.05L36.97 11.05Q36.88 10.99 36.76 10.85L36.76 10.85L36.76 10.85Q36.39 11.66 36.09 12.38L36.09 12.38L36.09 12.38Q35.80 13.09 35.57 13.76L35.57 13.76L35.57 13.76Q35.34 14.42 35.16 15.04L35.16 15.04L35.16 15.04Q34.99 15.67 34.86 16.31L34.86 16.31L34.86 16.31Q34.38 16.20 34.03 15.90L34.03 15.90L34.03 15.90Q33.68 15.61 33.38 15.08L33.38 15.08L33.38 15.08Q33.43 14.95 33.49 14.83L33.49 14.83L33.49 14.83Q33.56 14.71 33.66 14.50L33.66 14.50L33.66 14.50Q33.75 14.28 33.90 13.94L33.90 13.94L33.90 13.94Q34.05 13.61 34.29 13.05L34.29 13.05L34.29 13.05Q34.54 12.49 34.88 11.68L34.88 11.68L34.88 11.68Q35.22 10.86 35.71 9.70L35.71 9.70L35.71 9.70Q35.94 9.18 36.10 8.79L36.10 8.79L36.10 8.79Q36.26 8.40 36.39 8.04L36.39 8.04L36.39 8.04Q36.51 7.69 36.62 7.33L36.62 7.33L36.62 7.33Q36.72 6.97 36.83 6.51L36.83 6.51L36.83 6.51Q36.19 6.73 35.64 7.01L35.64 7.01L35.64 7.01Q35.08 7.28 34.72 7.59L34.72 7.59L34.72 7.59Q34.59 7.50 34.46 7.34L34.46 7.34L34.46 7.34Q34.33 7.17 34.22 6.96L34.22 6.96L34.22 6.96Q34.10 6.76 34.02 6.55L34.02 6.55L34.02 6.55Q33.94 6.34 33.92 6.17L33.92 6.17L33.92 6.17Q34.34 5.89 34.95 5.66L34.95 5.66L34.95 5.66Q35.56 5.42 36.25 5.24L36.25 5.24L36.25 5.24Q36.93 5.07 37.65 4.97L37.65 4.97L37.65 4.97Q38.36 4.87 38.98 4.87L38.98 4.87L38.98 4.87Q40.66 4.87 41.58 5.56L41.58 5.56L41.58 5.56Q42.50 6.26 42.50 7.46ZM38.92 6.02L39.09 6.29L39.09 6.29Q38.99 6.41 38.78 6.79L38.78 6.79L38.78 6.79Q38.57 7.17 38.30 7.69L38.30 7.69L38.30 7.69Q38.02 8.22 37.72 8.83L37.72 8.83L37.72 8.83Q37.42 9.45 37.14 10.05L37.14 10.05L37.14 10.05Q38.19 10.05 39.07 9.86L39.07 9.86L39.07 9.86Q39.96 9.66 40.60 9.30L40.60 9.30L40.60 9.30Q41.24 8.95 41.60 8.46L41.60 8.46L41.60 8.46Q41.96 7.98 41.96 7.39L41.96 7.39L41.96 7.39Q41.96 6.69 41.45 6.32L41.45 6.32L41.45 6.32Q40.95 5.95 39.90 5.95L39.90 5.95L39.90 5.95Q39.66 5.95 39.42 5.97L39.42 5.97L39.42 5.97Q39.19 5.99 38.92 6.02L38.92 6.02ZM50.08 14.38L50.08 14.38L50.08 14.38Q50.08 13.87 50.24 13.07L50.24 13.07L50.24 13.07Q50.40 12.26 50.66 11.33L50.66 11.33L50.66 11.33Q50.92 10.40 51.25 9.43L51.25 9.43L51.25 9.43Q51.59 8.46 51.94 7.60L51.94 7.60L51.94 7.60Q52.29 6.75 52.63 6.10L52.63 6.10L52.63 6.10Q52.96 5.46 53.23 5.18L53.23 5.18L53.23 5.18Q53.37 5.19 53.60 5.29L53.60 5.29L53.60 5.29Q53.83 5.38 54.07 5.50L54.07 5.50L54.07 5.50Q54.31 5.63 54.50 5.78L54.50 5.78L54.50 5.78Q54.70 5.92 54.75 6.05L54.75 6.05L54.75 6.05Q54.35 6.41 53.95 7.15L53.95 7.15L53.95 7.15Q53.55 7.88 53.18 8.82L53.18 8.82L53.18 8.82Q52.81 9.76 52.49 10.80L52.49 10.80L52.49 10.80Q52.16 11.84 51.93 12.82L51.93 12.82L51.93 12.82Q51.69 13.80 51.55 14.64L51.55 14.64L51.55 14.64Q51.42 15.48 51.42 16.00L51.42 16.00L51.42 16.00Q51.42 16.24 51.46 16.30L51.46 16.30L51.46 16.30Q51.16 16.28 51.02 16.19L51.02 16.19L51.02 16.19Q50.88 16.10 50.80 16.00L50.80 16.00L50.80 16.00Q50.72 15.89 50.66 15.79L50.66 15.79L50.66 15.79Q50.60 15.68 50.47 15.62L50.47 15.62L50.47 15.62Q50.37 15.58 50.30 15.43L50.30 15.43L50.30 15.43Q50.23 15.27 50.18 15.09L50.18 15.09L50.18 15.09Q50.13 14.90 50.11 14.70L50.11 14.70L50.11 14.70Q50.08 14.50 50.08 14.38ZM65.52 16.07L65.52 16.07L65.52 16.07Q65.20 16.24 64.83 16.24L64.83 16.24L64.83 16.24Q64.39 16.18 63.97 16.02L63.97 16.02L63.97 16.02Q63.56 15.85 63.36 15.61L63.36 15.61L63.36 15.61Q63.25 14.92 63.18 14.35L63.18 14.35L63.18 14.35Q63.11 13.78 63.07 13.27L63.07 13.27L63.07 13.27Q63.03 12.75 63.01 12.29L63.01 12.29L63.01 12.29Q63 11.82 63 11.34L63 11.34L63 11.34Q63 10.71 63.01 10.01L63.01 10.01L63.01 10.01Q63.03 9.31 63.05 8.52L63.05 8.52L63.05 8.52Q63.07 7.73 63.08 6.82L63.08 6.82L63.08 6.82Q63.10 5.92 63.10 4.86L63.10 4.86L63.10 4.86Q63.28 4.86 63.64 4.96L63.64 4.96L63.64 4.96Q64.01 5.07 64.36 5.21L64.36 5.21L64.36 5.21Q64.72 5.35 65.00 5.49L65.00 5.49L65.00 5.49Q65.28 5.64 65.31 5.74L65.31 5.74L65.31 5.74Q65.17 6.13 65.06 6.76L65.06 6.76L65.06 6.76Q64.96 7.39 64.90 8.16L64.90 8.16L64.90 8.16Q64.83 8.93 64.81 9.79L64.81 9.79L64.81 9.79Q64.78 10.64 64.78 11.48L64.78 11.48L64.78 11.48Q64.78 12.11 64.79 12.61L64.79 12.61L64.79 12.61Q64.81 13.10 64.83 13.50L64.83 13.50L64.83 13.50Q64.85 13.90 64.89 14.25L64.89 14.25L64.89 14.25Q64.93 14.59 64.99 14.92L64.99 14.92L64.99 14.92Q65.38 13.73 65.85 12.54L65.85 12.54L65.85 12.54Q66.32 11.35 66.81 10.25L66.81 10.25L66.81 10.25Q67.31 9.16 67.80 8.20L67.80 8.20L67.80 8.20Q68.29 7.25 68.73 6.54L68.73 6.54L68.73 6.54Q69.17 5.84 69.52 5.43L69.52 5.43L69.52 5.43Q69.87 5.01 70.10 4.98L70.10 4.98L70.10 4.98Q70.25 5.01 70.43 5.10L70.43 5.10L70.43 5.10Q70.60 5.19 70.76 5.32L70.76 5.32L70.76 5.32Q70.91 5.45 71.04 5.60L71.04 5.60L71.04 5.60Q71.16 5.75 71.23 5.91L71.23 5.91L71.23 5.91Q70.71 6.09 70.12 6.76L70.12 6.76L70.12 6.76Q69.52 7.43 68.92 8.38L68.92 8.38L68.92 8.38Q68.32 9.32 67.75 10.44L67.75 10.44L67.75 10.44Q67.19 11.55 66.73 12.61L66.73 12.61L66.73 12.61Q66.28 13.68 65.95 14.60L65.95 14.60L65.95 14.60Q65.63 15.53 65.52 16.07ZM82.49 9.21L82.49 9.21L82.49 9.21Q82.95 9.21 83.21 9.46L83.21 9.46L83.21 9.46Q83.47 9.72 83.47 10.16L83.47 10.16L83.47 10.16Q83.47 10.28 83.45 10.39L83.45 10.39L83.45 10.39Q83.43 10.51 83.40 10.60L83.40 10.60L83.40 10.60Q83.22 10.57 82.99 10.55L82.99 10.55L82.99 10.55Q82.77 10.53 82.46 10.53L82.46 10.53L82.46 10.53Q81.86 10.53 81.24 10.63L81.24 10.63L81.24 10.63Q80.63 10.74 80.07 10.81L80.07 10.81L80.07 10.81Q79.74 11.55 79.48 12.24L79.48 12.24L79.48 12.24Q79.21 12.94 79.02 13.51L79.02 13.51L79.02 13.51Q78.83 14.08 78.73 14.50L78.73 14.50L78.73 14.50Q78.62 14.92 78.61 15.13L78.61 15.13L78.61 15.13Q79.74 14.90 80.90 14.73L80.90 14.73L80.90 14.73Q82.05 14.56 83.33 14.48L83.33 14.48L83.33 14.48Q83.48 14.71 83.59 14.99L83.59 14.99L83.59 14.99Q83.69 15.27 83.69 15.60L83.69 15.60L83.69 15.60Q83.69 15.68 83.69 15.78L83.69 15.78L83.69 15.78Q83.69 15.88 83.66 15.97L83.66 15.97L83.66 15.97Q83.27 15.96 82.84 15.95L82.84 15.95L82.84 15.95Q82.40 15.95 81.70 15.95L81.70 15.95L81.70 15.95Q81.24 15.95 80.83 15.97L80.83 15.97L80.83 15.97Q80.42 15.99 80.00 16.03L80.00 16.03L80.00 16.03Q79.58 16.07 79.11 16.14L79.11 16.14L79.11 16.14Q78.64 16.21 78.05 16.31L78.05 16.31L78.05 16.31Q77.41 16.06 76.80 15.08L76.80 15.08L76.80 15.08Q77.04 14.57 77.47 13.54L77.47 13.54L77.47 13.54Q77.90 12.52 78.55 10.79L78.55 10.79L78.55 10.79Q77.92 10.60 77.73 10.09L77.73 10.09L77.73 10.09Q77.80 10.02 78.13 9.92L78.13 9.92L78.13 9.92Q78.47 9.81 78.96 9.70L78.96 9.70L78.96 9.70Q79.17 9.16 79.32 8.75L79.32 8.75L79.32 8.75Q79.46 8.34 79.58 7.99L79.58 7.99L79.58 7.99Q79.69 7.63 79.78 7.29L79.78 7.29L79.78 7.29Q79.87 6.94 79.95 6.54L79.95 6.54L79.95 6.54Q79.46 6.51 79.18 6.27L79.18 6.27L79.18 6.27Q78.90 6.02 78.90 5.63L78.90 5.63L78.90 5.63Q78.90 5.52 78.94 5.36L78.94 5.36L78.94 5.36Q78.97 5.21 79.02 5.10L79.02 5.10L79.02 5.10Q79.30 5.14 79.56 5.15L79.56 5.15L79.56 5.15Q79.81 5.17 80.23 5.17L80.23 5.17L80.23 5.17Q81.12 5.17 81.89 5.12L81.89 5.12L81.89 5.12Q82.66 5.07 83.28 5.01L83.28 5.01L83.28 5.01Q83.90 4.96 84.35 4.91L84.35 4.91L84.35 4.91Q84.80 4.86 85.04 4.86L85.04 4.86L85.04 4.86Q85.36 4.86 85.61 5.19L85.61 5.19L85.61 5.19Q85.86 5.53 85.99 6.15L85.99 6.15L85.99 6.15Q85.55 6.10 85.28 6.09L85.28 6.09L85.28 6.09Q85.01 6.08 84.80 6.08L84.80 6.08L84.80 6.08Q84.03 6.08 83.39 6.15L83.39 6.15L83.39 6.15Q82.75 6.23 82.17 6.31L82.17 6.31L82.17 6.31Q82.08 6.44 81.98 6.64L81.98 6.64L81.98 6.64Q81.87 6.83 81.70 7.18L81.70 7.18L81.70 7.18Q81.54 7.53 81.29 8.06L81.29 8.06L81.29 8.06Q81.05 8.60 80.70 9.39L80.70 9.39L80.70 9.39Q81.23 9.31 81.70 9.26L81.70 9.26L81.70 9.26Q82.17 9.21 82.49 9.21ZM105.34 6.69L105.34 6.69L105.34 6.69Q104.78 6.69 104.47 6.38L104.47 6.38L104.47 6.38Q104.17 6.06 104.17 5.61L104.17 5.61L104.17 5.61Q104.17 5.50 104.21 5.35L104.21 5.35L104.21 5.35Q104.24 5.19 104.30 5.08L104.30 5.08L104.30 5.08Q104.48 5.17 104.84 5.20L104.84 5.20L104.84 5.20Q105.20 5.24 105.67 5.24L105.67 5.24L105.67 5.24Q106.39 5.24 107.29 5.17L107.29 5.17L107.29 5.17Q108.19 5.11 109.02 5.04L109.02 5.04L109.02 5.04Q109.84 4.97 110.47 4.91L110.47 4.91L110.47 4.91Q111.10 4.84 111.29 4.84L111.29 4.84L111.29 4.84Q111.80 4.84 112.03 5.23L112.03 5.23L112.03 5.23Q112.27 5.61 112.38 6.26L112.38 6.26L112.38 6.26Q112.01 6.23 111.66 6.21L111.66 6.21L111.66 6.21Q111.30 6.19 111.05 6.19L111.05 6.19L111.05 6.19Q110.60 6.19 110.14 6.22L110.14 6.22L110.14 6.22Q109.69 6.24 109.23 6.30L109.23 6.30L109.23 6.30Q109.03 6.71 108.79 7.26L108.79 7.26L108.79 7.26Q108.56 7.81 108.32 8.41L108.32 8.41L108.32 8.41Q108.09 9.02 107.88 9.61L107.88 9.61L107.88 9.61Q107.67 10.21 107.52 10.68L107.52 10.68L107.52 10.68Q107.21 11.61 106.98 12.39L106.98 12.39L106.98 12.39Q106.75 13.17 106.57 13.85L106.57 13.85L106.57 13.85Q106.40 14.53 106.27 15.15L106.27 15.15L106.27 15.15Q106.15 15.76 106.05 16.35L106.05 16.35L106.05 16.35Q105.11 16.21 104.48 15.18L104.48 15.18L104.48 15.18Q104.59 14.74 104.75 14.23L104.75 14.23L104.75 14.23Q104.92 13.72 105.13 13.07L105.13 13.07L105.13 13.07Q105.35 12.42 105.64 11.59L105.64 11.59L105.64 11.59Q105.94 10.77 106.32 9.72L106.32 9.72L106.32 9.72Q106.46 9.32 106.61 8.90L106.61 8.90L106.61 8.90Q106.76 8.47 106.91 8.05L106.91 8.05L106.91 8.05Q107.06 7.63 107.18 7.24L107.18 7.24L107.18 7.24Q107.30 6.85 107.38 6.52L107.38 6.52L107.38 6.52Q106.79 6.59 106.27 6.64L106.27 6.64L106.27 6.64Q105.74 6.69 105.34 6.69ZM124.25 4.98L124.25 4.98L124.25 4.98Q124.52 5.10 124.80 5.27L124.80 5.27L124.80 5.27Q125.08 5.45 125.31 5.63L125.31 5.63L125.31 5.63Q125.55 5.81 125.71 5.98L125.71 5.98L125.71 5.98Q125.87 6.16 125.89 6.27L125.89 6.27L125.89 6.27Q125.65 6.22 125.41 6.20L125.41 6.20L125.41 6.20Q125.17 6.17 124.98 6.17L124.98 6.17L124.98 6.17Q124.35 6.17 123.72 6.48L123.72 6.48L123.72 6.48Q123.10 6.79 122.54 7.32L122.54 7.32L122.54 7.32Q121.98 7.85 121.51 8.57L121.51 8.57L121.51 8.57Q121.03 9.28 120.69 10.09L120.69 10.09L120.69 10.09Q120.34 10.91 120.15 11.77L120.15 11.77L120.15 11.77Q119.95 12.64 119.95 13.48L119.95 13.48L119.95 13.48Q119.95 14.57 120.32 15.11L120.32 15.11L120.32 15.11Q120.68 15.64 121.38 15.64L121.38 15.64L121.38 15.64Q121.72 15.64 122.11 15.51L122.11 15.51L122.11 15.51Q122.50 15.37 122.91 15.13L122.91 15.13L122.91 15.13Q123.31 14.90 123.70 14.56L123.70 14.56L123.70 14.56Q124.10 14.22 124.43 13.82L124.43 13.82L124.43 13.82Q124.92 13.23 125.31 12.48L125.31 12.48L125.31 12.48Q125.71 11.73 125.98 10.89L125.98 10.89L125.98 10.89Q126.25 10.05 126.40 9.16L126.40 9.16L126.40 9.16Q126.55 8.27 126.55 7.42L126.55 7.42L126.55 7.42Q126.55 7.08 126.53 6.85L126.53 6.85L126.53 6.85Q126.52 6.62 126.50 6.46L126.50 6.46L126.50 6.46Q126.48 6.30 126.46 6.20L126.46 6.20L126.46 6.20Q126.45 6.10 126.43 6.03L126.43 6.03L126.43 6.03Q126.60 6.12 126.80 6.24L126.80 6.24L126.80 6.24Q127.01 6.36 127.18 6.59L127.18 6.59L127.18 6.59Q127.36 6.82 127.48 7.20L127.48 7.20L127.48 7.20Q127.60 7.57 127.60 8.18L127.60 8.18L127.60 8.18Q127.60 9.16 127.36 10.10L127.36 10.10L127.36 10.10Q127.13 11.05 126.72 11.90L126.72 11.90L126.72 11.90Q126.31 12.75 125.75 13.50L125.75 13.50L125.75 13.50Q125.19 14.24 124.54 14.80L124.54 14.80L124.54 14.80Q123.70 15.54 122.75 15.95L122.75 15.95L122.75 15.95Q121.80 16.35 120.92 16.35L120.92 16.35L120.92 16.35Q119.63 16.35 118.95 15.53L118.95 15.53L118.95 15.53Q118.27 14.71 118.27 13.12L118.27 13.12L118.27 13.12Q118.27 12.26 118.46 11.31L118.46 11.31L118.46 11.31Q118.65 10.36 118.99 9.44L118.99 9.44L118.99 9.44Q119.34 8.51 119.81 7.68L119.81 7.68L119.81 7.68Q120.29 6.85 120.85 6.21L120.85 6.21L120.85 6.21Q121.42 5.57 122.07 5.19L122.07 5.19L122.07 5.19Q122.72 4.82 123.41 4.82L123.41 4.82L123.41 4.82Q123.63 4.82 123.83 4.85L123.83 4.85L123.83 4.85Q124.03 4.89 124.25 4.98ZM147.04 15.61L147.04 15.61L147.04 15.61Q146.97 15.04 146.94 14.36L146.94 14.36L146.94 14.36Q146.90 13.68 146.90 13.09L146.90 13.09L146.90 13.09Q146.90 12.15 146.96 11.29L146.96 11.29L146.96 11.29Q147.03 10.43 147.12 9.48L147.12 9.48L147.12 9.48Q147.21 8.54 147.32 7.43L147.32 7.43L147.32 7.43Q147.43 6.31 147.52 4.86L147.52 4.86L147.52 4.86Q147.70 4.86 148.04 4.96L148.04 4.96L148.04 4.96Q148.39 5.07 148.74 5.21L148.74 5.21L148.74 5.21Q149.09 5.35 149.35 5.49L149.35 5.49L149.35 5.49Q149.62 5.64 149.66 5.74L149.66 5.74L149.66 5.74Q149.42 6.29 149.23 7.18L149.23 7.18L149.23 7.18Q149.04 8.06 148.92 9.11L148.92 9.11L148.92 9.11Q148.79 10.16 148.72 11.27L148.72 11.27L148.72 11.27Q148.65 12.38 148.65 13.34L148.65 13.34L148.65 13.34Q148.65 13.79 148.67 14.22L148.67 14.22L148.67 14.22Q148.68 14.66 148.71 15.02L148.71 15.02L148.71 15.02Q149.00 14.59 149.39 13.78L149.39 13.78L149.39 13.78Q149.77 12.98 150.18 11.98L150.18 11.98L150.18 11.98Q150.60 10.99 151.01 9.91L151.01 9.91L151.01 9.91Q151.42 8.82 151.77 7.83L151.77 7.83L151.77 7.83Q152.12 6.85 152.37 6.05L152.37 6.05L152.37 6.05Q152.61 5.26 152.71 4.86L152.71 4.86L152.71 4.86Q152.89 4.86 153.25 4.96L153.25 4.96L153.25 4.96Q153.61 5.07 153.95 5.21L153.95 5.21L153.95 5.21Q154.29 5.35 154.56 5.49L154.56 5.49L154.56 5.49Q154.83 5.64 154.85 5.74L154.85 5.74L154.85 5.74Q154.62 6.29 154.43 7.18L154.43 7.18L154.43 7.18Q154.24 8.06 154.11 9.11L154.11 9.11L154.11 9.11Q153.99 10.16 153.92 11.27L153.92 11.27L153.92 11.27Q153.85 12.38 153.85 13.34L153.85 13.34L153.85 13.34Q153.85 13.75 153.85 14.15L153.85 14.15L153.85 14.15Q153.86 14.55 153.89 14.87L153.89 14.87L153.89 14.87Q154.34 13.71 154.82 12.56L154.82 12.56L154.82 12.56Q155.30 11.42 155.78 10.38L155.78 10.38L155.78 10.38Q156.25 9.34 156.70 8.43L156.70 8.43L156.70 8.43Q157.15 7.53 157.53 6.82L157.53 6.82L157.53 6.82Q157.91 6.12 158.19 5.66L158.19 5.66L158.19 5.66Q158.47 5.19 158.62 5.04L158.62 5.04L158.62 5.04Q158.94 5.08 159.28 5.27L159.28 5.27L159.28 5.27Q159.63 5.46 159.89 5.75L159.89 5.75L159.89 5.75Q159.49 6.08 158.97 6.81L158.97 6.81L158.97 6.81Q158.45 7.55 157.91 8.51L157.91 8.51L157.91 8.51Q157.36 9.48 156.81 10.57L156.81 10.57L156.81 10.57Q156.25 11.66 155.78 12.70L155.78 12.70L155.78 12.70Q155.30 13.73 154.93 14.63L154.93 14.63L154.93 14.63Q154.56 15.53 154.36 16.07L154.36 16.07L154.36 16.07Q154.00 16.24 153.65 16.24L153.65 16.24L153.65 16.24Q153.20 16.18 152.80 16.02L152.80 16.02L152.80 16.02Q152.40 15.85 152.24 15.61L152.24 15.61L152.24 15.61Q152.19 15.39 152.17 15.09L152.17 15.09L152.17 15.09Q152.14 14.78 152.12 14.49L152.12 14.49L152.12 14.49Q152.11 14.20 152.10 13.92L152.10 13.92L152.10 13.92Q152.10 13.65 152.10 13.45L152.10 13.45L152.10 13.45Q152.10 12.21 152.19 10.91L152.19 10.91L152.19 10.91Q152.29 9.62 152.43 8.13L152.43 8.13L152.43 8.13Q152.11 9.09 151.72 10.18L151.72 10.18L151.72 10.18Q151.33 11.27 150.90 12.34L150.90 12.34L150.90 12.34Q150.47 13.41 150.03 14.38L150.03 14.38L150.03 14.38Q149.59 15.36 149.17 16.07L149.17 16.07L149.17 16.07Q148.81 16.24 148.46 16.24L148.46 16.24L148.46 16.24Q148.01 16.18 147.61 16.02L147.61 16.02L147.61 16.02Q147.21 15.85 147.04 15.61ZM166.01 14.38L166.01 14.38L166.01 14.38Q166.01 13.87 166.17 13.07L166.17 13.07L166.17 13.07Q166.33 12.26 166.59 11.33L166.59 11.33L166.59 11.33Q166.85 10.40 167.19 9.43L167.19 9.43L167.19 9.43Q167.52 8.46 167.87 7.60L167.87 7.60L167.87 7.60Q168.22 6.75 168.56 6.10L168.56 6.10L168.56 6.10Q168.90 5.46 169.16 5.18L169.16 5.18L169.16 5.18Q169.30 5.19 169.53 5.29L169.53 5.29L169.53 5.29Q169.76 5.38 170.00 5.50L170.00 5.50L170.00 5.50Q170.24 5.63 170.44 5.78L170.44 5.78L170.44 5.78Q170.63 5.92 170.69 6.05L170.69 6.05L170.69 6.05Q170.28 6.41 169.88 7.15L169.88 7.15L169.88 7.15Q169.48 7.88 169.11 8.82L169.11 8.82L169.11 8.82Q168.74 9.76 168.42 10.80L168.42 10.80L168.42 10.80Q168.10 11.84 167.86 12.82L167.86 12.82L167.86 12.82Q167.62 13.80 167.49 14.64L167.49 14.64L167.49 14.64Q167.36 15.48 167.36 16.00L167.36 16.00L167.36 16.00Q167.36 16.24 167.40 16.30L167.40 16.30L167.40 16.30Q167.09 16.28 166.95 16.19L166.95 16.19L166.95 16.19Q166.81 16.10 166.73 16.00L166.73 16.00L166.73 16.00Q166.66 15.89 166.59 15.79L166.59 15.79L166.59 15.79Q166.53 15.68 166.40 15.62L166.40 15.62L166.40 15.62Q166.31 15.58 166.24 15.43L166.24 15.43L166.24 15.43Q166.17 15.27 166.12 15.09L166.12 15.09L166.12 15.09Q166.07 14.90 166.04 14.70L166.04 14.70L166.04 14.70Q166.01 14.50 166.01 14.38ZM178.25 16.24L178.25 16.24L178.25 16.24Q177.45 16.00 177.17 15.79L177.17 15.79L177.17 15.79Q176.89 15.57 176.89 15.19L176.89 15.19L176.89 15.19Q176.89 14.77 177.09 14.01L177.09 14.01L177.09 14.01Q177.28 13.24 177.60 12.31L177.60 12.31L177.60 12.31Q177.91 11.37 178.32 10.35L178.32 10.35L178.32 10.35Q178.72 9.32 179.14 8.39L179.14 8.39L179.14 8.39Q179.56 7.45 179.96 6.67L179.96 6.67L179.96 6.67Q180.36 5.89 180.67 5.46L180.67 5.46L180.57 4.87L180.57 4.87Q180.77 4.87 181.12 4.97L181.12 4.97L181.12 4.97Q181.47 5.07 181.82 5.21L181.82 5.21L181.82 5.21Q182.18 5.35 182.45 5.49L182.45 5.49L182.45 5.49Q182.73 5.64 182.76 5.74L182.76 5.74L182.76 5.74Q182.69 6.08 182.64 6.76L182.64 6.76L182.64 6.76Q182.60 7.43 182.60 8.20L182.60 8.20L182.60 8.20Q182.60 9.73 182.72 11.19L182.72 11.19L182.72 11.19Q182.84 12.66 183.27 14.17L183.27 14.17L183.27 14.17Q183.50 13.05 183.76 11.94L183.76 11.94L183.76 11.94Q184.02 10.82 184.30 9.81L184.30 9.81L184.30 9.81Q184.58 8.79 184.86 7.92L184.86 7.92L184.86 7.92Q185.14 7.06 185.39 6.40L185.39 6.40L185.39 6.40Q185.65 5.75 185.88 5.38L185.88 5.38L185.88 5.38Q186.10 5.01 186.28 4.98L186.28 4.98L186.28 4.98Q186.44 5.01 186.62 5.10L186.62 5.10L186.62 5.10Q186.80 5.19 186.97 5.32L186.97 5.32L186.97 5.32Q187.14 5.45 187.28 5.60L187.28 5.60L187.28 5.60Q187.42 5.75 187.50 5.91L187.50 5.91L187.50 5.91Q187.05 6.09 186.61 6.76L186.61 6.76L186.61 6.76Q186.17 7.43 185.77 8.39L185.77 8.39L185.77 8.39Q185.37 9.35 185.03 10.47L185.03 10.47L185.03 10.47Q184.69 11.59 184.43 12.68L184.43 12.68L184.43 12.68Q184.17 13.76 184.02 14.69L184.02 14.69L184.02 14.69Q183.88 15.61 183.86 16.17L183.86 16.17L183.86 16.17Q183.86 16.20 183.88 16.21L183.88 16.21L183.88 16.21Q183.83 16.23 183.78 16.23L183.78 16.23L183.78 16.23Q183.74 16.23 183.69 16.23L183.69 16.23L183.69 16.23Q183.05 16.23 182.55 16.07L182.55 16.07L182.55 16.07Q182.06 15.90 181.90 15.61L181.90 15.61L181.90 15.61Q181.61 14.43 181.41 13.34L181.41 13.34L181.41 13.34Q181.22 12.25 181.08 11.16L181.08 11.16L181.08 11.16Q180.95 10.07 180.87 8.95L180.87 8.95L180.87 8.95Q180.80 7.84 180.75 6.62L180.75 6.62L180.75 6.62Q180.49 7.04 180.19 7.72L180.19 7.72L180.19 7.72Q179.90 8.40 179.62 9.21L179.62 9.21L179.62 9.21Q179.34 10.02 179.08 10.92L179.08 10.92L179.08 10.92Q178.82 11.82 178.63 12.67L178.63 12.67L178.63 12.67Q178.43 13.52 178.32 14.29L178.32 14.29L178.32 14.29Q178.21 15.05 178.21 15.61L178.21 15.61L178.21 15.61Q178.21 15.90 178.21 16.03L178.21 16.03L178.21 16.03Q178.22 16.16 178.25 16.24Z"></path></g></svg>